<svg xmlns="http://www.w3.org/2000/svg" viewBox="0 0 340.37 340.36"><defs><style>.cls-1{fill:none;stroke:#fff;stroke-linejoin:round;stroke-width:15px;}</style></defs><g id="Layer_2" data-name="Layer 2"><g id="outline"><path class="cls-1" d="M129.51,77.26V224.07A20.9,20.9,0,0,1,116.74,243c-9.41,3.79-17.9-1.35-18.91-2A102.54,102.54,0,0,1,68.56,168,103.21,103.21,0,0,1,129.51,77.26Z"/><path class="cls-1" d="M129.51,77.26V224.07A20.9,20.9,0,0,1,116.74,243c-9.41,3.79-17.9-1.35-18.91-2A102.54,102.54,0,0,1,68.56,168,103.21,103.21,0,0,1,129.51,77.26Z"/><path class="cls-1" d="M97.83,240.94a.08.08,0,0,1,0,0"/><line class="cls-1" x1="170.2" y1="332.89" x2="170.2" y2="332.86"/><path class="cls-1" d="M271.85,168c.89,42-24.68,79-61,95.18V210.87a20.34,20.34,0,1,0-40.67.2V332.86h-1.92C78.78,331.8,6,256.7,7.53,167.31c1.32-73.86,53-136.54,122-154.59V77.26A103.21,103.21,0,0,0,68.56,168a102.54,102.54,0,0,0,29.27,72.94c1,.66,9.5,5.8,18.91,2a20.9,20.9,0,0,0,12.77-18.88V77.26a99,99,0,0,1,38.37-8.69C223.38,67.22,270.64,112.3,271.85,168Z"/><path class="cls-1" d="M332.85,168.2c1.1,89.65-72.74,164.66-162.65,164.66V211.07a20.34,20.34,0,1,1,40.67-.2v52.31c36.3-16.15,61.87-53.14,61-95.18-1.21-55.7-48.47-100.78-104-99.43a99,99,0,0,0-38.37,8.69V12.72A160.49,160.49,0,0,1,170.2,7.5C259,7.5,331.79,80.27,332.85,168.2Z"/><path class="cls-1" d="M129.51,77.26V224.07A20.9,20.9,0,0,1,116.74,243c-9.41,3.79-17.9-1.35-18.91-2A102.54,102.54,0,0,1,68.56,168,103.21,103.21,0,0,1,129.51,77.26Z"/><path class="cls-1" d="M129.51,77.26V224.07A20.9,20.9,0,0,1,116.74,243c-9.41,3.79-17.9-1.35-18.91-2A102.54,102.54,0,0,1,68.56,168,103.21,103.21,0,0,1,129.51,77.26Z"/><path class="cls-1" d="M97.83,240.94a.08.08,0,0,1,0,0"/><line class="cls-1" x1="170.2" y1="332.89" x2="170.2" y2="332.86"/><path class="cls-1" d="M271.85,168c.89,42-24.68,79-61,95.18V138.93a20.33,20.33,0,1,0-40.66.2V332.86h-1.92C78.78,331.8,6,256.7,7.53,167.31c1.32-73.86,53-136.54,122-154.59V77.26A103.21,103.21,0,0,0,68.56,168a102.54,102.54,0,0,0,29.27,72.94c1,.66,9.5,5.8,18.91,2a20.9,20.9,0,0,0,12.77-18.88V77.26a99,99,0,0,1,38.37-8.69C223.38,67.22,270.64,112.3,271.85,168Z"/><path class="cls-1" d="M332.85,168.2c1.1,89.65-72.74,164.66-162.65,164.66V139.13a20.33,20.33,0,1,1,40.66-.2V263.18c36.3-16.15,61.87-53.14,61-95.18-1.21-55.7-48.47-100.78-104-99.43a99,99,0,0,0-38.37,8.69V12.72A160.49,160.49,0,0,1,170.2,7.5C259,7.5,331.79,80.27,332.85,168.2Z"/></g></g></svg>